<?xml version="1.0" encoding="utf-8"?><svg xmlns="http://www.w3.org/2000/svg" xmlns:xlink="http://www.w3.org/1999/xlink"><symbol viewBox="0 0 167 181" id="about" xmlns="http://www.w3.org/2000/svg"><path fill-opacity=".1" d="M63.23 172.14a1351.48 1351.48 0 0 0-40.65-23.47c-13.68-7.6-20.39-19.2-20.12-34.85.28-15.65.28-31.3 0-46.94C2.2 51.24 8.9 39.62 22.58 32.03A1353.64 1353.64 0 0 0 63.23 8.56c13.42-8.05 26.83-8.05 40.24 0a1353.64 1353.64 0 0 0 40.65 23.47c13.69 7.59 20.4 19.2 20.12 34.85a1354.9 1354.9 0 0 0 0 46.94c.27 15.64-6.43 27.26-20.12 34.85a1351.48 1351.48 0 0 0-40.65 23.47c-13.41 8.05-26.82 8.05-40.24 0z"/><path d="M63.23 172.14a1351.48 1351.48 0 0 0-40.65-23.47c-13.68-7.6-20.39-19.2-20.12-34.85.28-15.65.28-31.3 0-46.94C2.2 51.24 8.9 39.62 22.58 32.03A1353.64 1353.64 0 0 0 63.23 8.56c13.42-8.05 26.83-8.05 40.24 0a1353.64 1353.64 0 0 0 40.65 23.47c13.69 7.59 20.4 19.2 20.12 34.85a1354.9 1354.9 0 0 0 0 46.94c.27 15.64-6.43 27.26-20.12 34.85a1351.48 1351.48 0 0 0-40.65 23.47c-13.41 8.05-26.82 8.05-40.24 0z"/><path d="M108.66 62.38l-5.41-1.08c-.28-.78-.6-1.54-.95-2.27l3.06-4.6c.94-1.4.75-3.27-.44-4.46l-3.4-3.4a3.53 3.53 0 0 0-4.45-.44l-4.6 3.07c-.73-.36-1.49-.68-2.27-.95l-1.09-5.41A3.53 3.53 0 0 0 85.65 40h-4.8a3.53 3.53 0 0 0-3.46 2.84l-1.09 5.41c-.78.27-1.54.6-2.28.95l-4.6-3.07a3.53 3.53 0 0 0-4.45.45l-3.4 3.4a3.53 3.53 0 0 0-.44 4.45l3.07 4.6c-.36.73-.68 1.49-.95 2.27l-5.41 1.09A3.53 3.53 0 0 0 55 65.85v4.8a3.53 3.53 0 0 0 2.84 3.46l5.41 1.09c.27.78.6 1.54.95 2.28l-3.07 4.6a3.53 3.53 0 0 0 .45 4.45l3.4 3.4a3.53 3.53 0 0 0 4.45.44l4.6-3.07c.73.36 1.49.68 2.27.95l1.09 5.41a3.53 3.53 0 0 0 3.46 2.84h4.8a3.53 3.53 0 0 0 3.46-2.84l1.09-5.41c.78-.27 1.54-.6 2.27-.95l4.6 3.07a3.53 3.53 0 0 0 4.46-.45l3.4-3.4a3.53 3.53 0 0 0 .44-4.45l-3.07-4.6c.36-.73.68-1.5.95-2.27l5.41-1.09a3.53 3.53 0 0 0 2.84-3.46v-4.8a3.53 3.53 0 0 0-2.84-3.46zm-6.1 9.35a3.53 3.53 0 0 0-2.65 2.3c-.23.66-.49 1.29-.79 1.9a3.53 3.53 0 0 0 .24 3.5l3.07 4.6-3.4 3.4-4.6-3.07a3.53 3.53 0 0 0-3.5-.24c-.6.3-1.24.57-1.9.8a3.53 3.53 0 0 0-2.3 2.63l-1.08 5.42h-4.8l-1.09-5.42a3.53 3.53 0 0 0-2.3-2.64c-.65-.22-1.28-.49-1.9-.79a3.52 3.52 0 0 0-3.5.24l-4.59 3.07-3.4-3.4 3.07-4.6c.69-1.04.78-2.37.24-3.5-.3-.6-.57-1.24-.8-1.9a3.53 3.53 0 0 0-2.64-2.3l-5.4-1.08v-4.8l5.4-1.09a3.53 3.53 0 0 0 2.65-2.3c.22-.65.49-1.28.79-1.9a3.53 3.53 0 0 0-.24-3.5l-3.07-4.6 3.4-3.39 4.6 3.07a3.54 3.54 0 0 0 3.5.24c.6-.3 1.24-.57 1.9-.8a3.53 3.53 0 0 0 2.3-2.63l1.08-5.42h4.8l1.08 5.42a3.52 3.52 0 0 0 2.3 2.64c.66.22 1.3.49 1.9.79a3.53 3.53 0 0 0 3.5-.24l4.6-3.07 3.4 3.4-3.07 4.6a3.54 3.54 0 0 0-.24 3.5c.3.6.56 1.24.8 1.9a3.53 3.53 0 0 0 2.64 2.3l5.4 1.08v4.8zM83.24 55.9a12.36 12.36 0 1 0 0 24.72 12.36 12.36 0 0 0 0-24.72zm0 23.17a10.82 10.82 0 1 1 0-21.63 10.82 10.82 0 0 1 0 21.63zm0-17.87a7.06 7.06 0 1 0 0 14.12 7.06 7.06 0 0 0 0-14.12zm0 12.36a5.3 5.3 0 1 1 0-10.6 5.3 5.3 0 0 1 0 10.6z"/></symbol><symbol viewBox="0 0 167 181" id="blog" xmlns="http://www.w3.org/2000/svg"><path fill-opacity=".1" d="M63.23 172.14a1340.48 1340.48 0 0 0-40.65-23.47c-13.68-7.6-20.39-19.2-20.12-34.85.28-15.65.28-31.3 0-46.94-.27-15.64 6.44-27.26 20.12-34.85A1342.6 1342.6 0 0 0 63.23 8.56c13.42-8.05 26.83-8.05 40.24 0a1367.6 1367.6 0 0 0 40.65 23.47c13.69 7.59 20.39 19.2 20.12 34.85-.27 15.65-.27 31.3 0 46.94.27 15.64-6.43 27.26-20.12 34.85a1365.4 1365.4 0 0 0-40.65 23.47c-13.41 8.05-26.82 8.05-40.24 0z"/><path d="M63.23 172.14a1340.48 1340.48 0 0 0-40.65-23.47c-13.68-7.6-20.39-19.2-20.12-34.85.28-15.65.28-31.3 0-46.94-.27-15.64 6.44-27.26 20.12-34.85A1342.6 1342.6 0 0 0 63.23 8.56c13.42-8.05 26.83-8.05 40.24 0a1367.6 1367.6 0 0 0 40.65 23.47c13.69 7.59 20.39 19.2 20.12 34.85-.27 15.65-.27 31.3 0 46.94.27 15.64-6.43 27.26-20.12 34.85a1365.4 1365.4 0 0 0-40.65 23.47c-13.41 8.05-26.82 8.05-40.24 0z"/><path d="M109.28 44.68A15.49 15.49 0 0 0 98.5 40c-3.26 0-6.27 1.21-8.46 3.4l-8.82 8.89-.09.07-.03.05-18.72 18.87a7.24 7.24 0 0 0-1.84 3.09l-4.26 15.42c0 .04-.28 1.25-.28 1.87 0 3.5 2.84 6.34 6.35 6.34.7 0 2.05-.33 2.1-.34l15.37-4.04a7.4 7.4 0 0 0 3.09-1.84l27.66-27.88c5.03-5.04 4.47-13.48-1.29-19.22zM85.03 83.13a14.61 14.61 0 0 0-1.31-4.76l17.14-17.14c1.05 3.31.51 6.77-1.79 9.07l-.04.04.02.02-14.01 14.12c.01-.45.03-.9-.01-1.35zm-2.22-6.42a16.21 16.21 0 0 0-2.39-3.13 16.23 16.23 0 0 0-3.71-2.7L93.99 53.6a12.68 12.68 0 0 1 6.12 5.81zm-7.8-6.7a14.47 14.47 0 0 0-5.2-1.08l13.96-14.06c2.14-2.09 5.25-2.69 8.32-1.93zM63.55 94.15c-.19.05-.81.2-1.23.23a2.73 2.73 0 0 1-2.7-2.71c.03-.3.15-.83.19-1.02l1.91-6.92c2.07-.05 4.3.75 6.05 2.5a8.3 8.3 0 0 1 2.53 6.15zm8.53-2.24a10.09 10.09 0 0 0-3.03-6.95 10.3 10.3 0 0 0-6.82-3.08l1.8-6.54c.14-.44.39-.86.71-1.24 3.64-2.6 9.23-1.83 13.11 2.05 4.11 4.11 4.75 10.13 1.58 13.72a3.7 3.7 0 0 1-.65.29zM108 61.34l-3.05 3.07c0-.4.05-.8.01-1.22-.31-3.5-1.95-6.9-4.61-9.55a15.45 15.45 0 0 0-10.74-4.66l3-3.02a8.25 8.25 0 0 1 5.89-2.34c2.92 0 5.92 1.32 8.22 3.62a11.93 11.93 0 0 1 3.63 7.56 8.29 8.29 0 0 1-2.35 6.54z"/></symbol><symbol viewBox="0 0 18.1 18" id="cart" xmlns="http://www.w3.org/2000/svg"><path d="M1.6 16.9c0 .6.6 1.1 1.2 1.1h12.5c.6 0 1.2-.5 1.2-1.1l.4-6.3H1.2l.4 6.3zm11.5-4.2c0-.3.2-.6.4-.6s.4.3.4.6v3.4c0 .3-.2.6-.4.6s-.4-.3-.4-.6v-3.4zm-3 0c0-.3.2-.6.4-.6s.4.3.4.6v3.4c0 .3-.2.6-.4.6s-.4-.3-.4-.6v-3.4zm-3 0c0-.3.2-.6.4-.6s.4.3.4.6v3.4c0 .3-.2.6-.4.6s-.4-.3-.4-.6v-3.4zm-3 0c0-.3.2-.6.4-.6s.4.3.4.6v3.4c0 .3-.2.6-.4.6s-.4-.3-.4-.6v-3.4zm3.6-3L6.5 8.5c-.2-.2-.3-.5-.3-.8 0-.3.1-.6.3-.8l.4-.4H.6c-.3.1-.6.3-.6.6v2.3c0 .3.3.6.6.6h7.5c-.2-.1-.3-.2-.4-.3zm9.8-3.1h-5L9.3 9.7 9 10h8.5c.3 0 .6-.3.6-.6V7.1c0-.3-.3-.5-.6-.5z"/><path d="M6.9 8.1l1.2 1.2c.2.2.6.2.8 0l7.2-7.2c.2-.2.2-.6 0-.8L14.9.1c-.2-.2-.6-.2-.8 0L6.9 7.3c-.2.2-.2.6 0 .8zm1.5-.9c.3 0 .6.3.6.6s-.3.6-.6.6-.6-.3-.6-.6.3-.6.6-.6z"/></symbol><symbol viewBox="0 0 167 181" id="contact" xmlns="http://www.w3.org/2000/svg"><path fill-opacity=".1" d="M63.23 172.14a1340.48 1340.48 0 0 0-40.65-23.47c-13.68-7.6-20.39-19.2-20.12-34.85.28-15.65.28-31.3 0-46.94-.27-15.64 6.44-27.26 20.12-34.85A1342.6 1342.6 0 0 0 63.23 8.56c13.42-8.05 26.83-8.05 40.24 0a1367.6 1367.6 0 0 0 40.65 23.47c13.69 7.59 20.39 19.2 20.12 34.85-.27 15.65-.27 31.3 0 46.94.27 15.64-6.43 27.26-20.12 34.85a1365.4 1365.4 0 0 0-40.65 23.47c-13.41 8.05-26.82 8.05-40.24 0z"/><path d="M63.23 172.14a1340.48 1340.48 0 0 0-40.65-23.47c-13.68-7.6-20.39-19.2-20.12-34.85.28-15.65.28-31.3 0-46.94-.27-15.64 6.44-27.26 20.12-34.85A1342.6 1342.6 0 0 0 63.23 8.56c13.42-8.05 26.83-8.05 40.24 0a1367.6 1367.6 0 0 0 40.65 23.47c13.69 7.59 20.39 19.2 20.12 34.85-.27 15.65-.27 31.3 0 46.94.27 15.64-6.43 27.26-20.12 34.85a1365.4 1365.4 0 0 0-40.65 23.47c-13.41 8.05-26.82 8.05-40.24 0z"/><path d="M101.17 42.29a1.8 1.8 0 0 0-1.99.01L44.81 78.55a1.81 1.81 0 0 0 .33 3.2l14.18 5.67 6.67 11.67c.32.55.91.9 1.55.91h.02c.64 0 1.23-.34 1.56-.88l3.76-6.28 17.57 7.03a1.81 1.81 0 0 0 2.46-1.39l9.06-54.37a1.8 1.8 0 0 0-.8-1.82zM49.68 79.66l42.01-28-30.54 32.69c-.16-.1-.31-.23-.48-.3zm12.79 5.96l-.01-.02 34.33-36.75-29.27 45.6zm27.24 10.05l-15.48-6.2c-.37-.14-.76-.19-1.14-.21L96.93 52.3z"/></symbol><symbol viewBox="0 0 172 186" id="cup" xmlns="http://www.w3.org/2000/svg"><defs><clipPath id="ea"><path d="M1062 1594v-186h172v186zm106.03-10.93c13.49-8.1 27.11-15.97 40.87-23.6 13.76-7.63 20.51-19.31 20.24-35.04-.28-15.73-.28-31.46 0-47.19.27-15.74-6.48-27.42-20.24-35.05a1369.54 1369.54 0 0 1-40.87-23.59c-13.49-8.11-26.97-8.11-40.46 0a1369.54 1369.54 0 0 1-40.87 23.59c-13.76 7.63-20.51 19.31-20.24 35.05.28 15.73.28 31.46 0 47.19-.27 15.73 6.48 27.41 20.24 35.04 13.76 7.63 27.38 15.5 40.87 23.6 13.49 8.1 26.97 8.1 40.46 0z"/></clipPath></defs><path fill-opacity=".1" d="M65.57 175.07a1369.83 1369.83 0 0 0-40.87-23.6c-13.76-7.63-20.51-19.31-20.24-35.04.28-15.73.28-31.46 0-47.19-.27-15.74 6.48-27.42 20.24-35.05A1369.54 1369.54 0 0 0 65.57 10.6c13.49-8.11 26.97-8.11 40.46 0 13.49 8.1 27.11 15.96 40.87 23.59 13.76 7.63 20.51 19.31 20.24 35.05-.28 15.73-.28 31.46 0 47.19.27 15.73-6.48 27.41-20.24 35.04a1369.83 1369.83 0 0 0-40.87 23.6c-13.49 8.1-26.97 8.1-40.46 0z"/><path d="M1127.57 1583.07a1369.83 1369.83 0 0 0-40.87-23.6c-13.76-7.63-20.51-19.31-20.24-35.04.28-15.73.28-31.46 0-47.19-.27-15.74 6.48-27.42 20.24-35.05a1369.54 1369.54 0 0 0 40.87-23.59c13.49-8.11 26.97-8.11 40.46 0 13.49 8.1 27.11 15.96 40.87 23.59 13.76 7.63 20.51 19.31 20.24 35.05-.28 15.73-.28 31.46 0 47.19.27 15.73-6.48 27.41-20.24 35.04a1369.83 1369.83 0 0 0-40.87 23.6c-13.49 8.1-26.97 8.1-40.46 0z" clip-path="url(#ea)" transform="translate(-1062 -1408)"/><path d="M110.74 74.61l-2.31-6.96a3.82 3.82 0 0 0-3.62-2.61H70.52a3.8 3.8 0 0 0-3.61 2.61l-2.33 6.96A3.8 3.8 0 0 0 61 78.38v5.71a3.8 3.8 0 0 0 3.81 3.81h1.97c0 .15-.06.28-.04.42l3.81 34.29a3.8 3.8 0 0 0 3.78 3.39H101a3.82 3.82 0 0 0 3.79-3.39l3.81-34.29c.01-.14-.04-.27-.04-.42h1.97a3.8 3.8 0 0 0 3.81-3.81v-5.71a3.8 3.8 0 0 0-3.6-3.77zm-40.22-5.76h34.29l1.91 5.72h-38.1zm3.81 53.34l-.63-5.71h27.94l-.64 5.71zm27.52-7.62H73.49l-2.12-19.05h32.6zm2.33-20.95H71.16l-.64-5.72h34.29zm6.35-9.53H64.81v-5.71h45.72z"/></symbol><symbol viewBox="0 0 172 186" id="diamond" xmlns="http://www.w3.org/2000/svg"><defs><clipPath id="fa"><path d="M766 1594v-186h172v186zm106.03-10.93c13.49-8.1 27.11-15.97 40.87-23.6 13.76-7.63 20.5-19.31 20.24-35.04-.28-15.73-.28-31.46 0-47.19.27-15.74-6.48-27.42-20.24-35.05a1367.12 1367.12 0 0 1-40.87-23.59c-13.49-8.11-26.97-8.11-40.46 0a1367.12 1367.12 0 0 1-40.87 23.59c-13.76 7.63-20.5 19.31-20.24 35.05.28 15.73.28 31.46 0 47.19-.27 15.73 6.48 27.41 20.24 35.04 13.76 7.63 27.38 15.5 40.87 23.6 13.49 8.1 26.97 8.1 40.46 0z"/></clipPath></defs><path d="M128.17 80.37l-13.08-13.08a5.13 5.13 0 0 0-3.64-1.51H65.5c-1.36 0-2.67.54-3.64 1.51L48.8 80.37a5.14 5.14 0 0 0-.2 7.06l36.04 38.39a5.15 5.15 0 0 0 7.7 0l36.05-38.39a5.13 5.13 0 0 0-.21-7.06zM94.19 83.8H82.76l5.72-4.76zm-3.7-6.44l7.04-5.86 5.2 5.19-6.53 5.43zm-9.74 4.76l-6.52-5.43 5.2-5.19 7.04 5.86zm14.14 4.26l-6.41 32.06-6.42-32.06zm2.62 0h12.64L91.2 117.97zm.7-2.58l6.34-5.28 5.28 5.28zm2.39-12.87h9.04l-4.93 4.11zm-12.12 4.76l-5.72-4.76H94.2zm-16.23-.65l-4.94-4.11h9.05zm.15 3.48l6.34 5.28H67.12zm7.04 7.86l6.32 31.59L66.8 86.38zm.55 26.98L54.65 86.38h9.15zm33.16-26.98h9.15l-25.34 26.98zm.32-2.58l-6.93-6.93 5.91-4.93 11.87 11.86zM64.5 71.93l5.93 4.94-6.94 6.93H52.45z"/><path fill-opacity=".1" d="M65.57 175.07a1367.41 1367.41 0 0 0-40.87-23.6c-13.76-7.63-20.5-19.31-20.24-35.04.28-15.73.28-31.46 0-47.19C4.2 53.5 10.94 41.82 24.7 34.19A1367.12 1367.12 0 0 0 65.57 10.6c13.49-8.11 26.97-8.11 40.46 0 13.49 8.1 27.11 15.96 40.87 23.59 13.76 7.63 20.5 19.31 20.24 35.05-.28 15.73-.28 31.46 0 47.19.27 15.73-6.48 27.41-20.24 35.04a1367.41 1367.41 0 0 0-40.87 23.6c-13.49 8.1-26.97 8.1-40.46 0z"/><path d="M831.57 1583.07a1367.41 1367.41 0 0 0-40.87-23.6c-13.76-7.63-20.5-19.31-20.24-35.04.28-15.73.28-31.46 0-47.19-.27-15.74 6.48-27.42 20.24-35.05a1367.12 1367.12 0 0 0 40.87-23.59c13.49-8.11 26.97-8.11 40.46 0 13.49 8.1 27.11 15.96 40.87 23.59 13.76 7.63 20.5 19.31 20.24 35.05-.28 15.73-.28 31.46 0 47.19.27 15.73-6.48 27.41-20.24 35.04a1367.41 1367.41 0 0 0-40.87 23.6c-13.49 8.1-26.97 8.1-40.46 0z" clip-path="url(#fa)" transform="translate(-766 -1408)"/></symbol><symbol viewBox="0 0 40 40" id="fb" xmlns="http://www.w3.org/2000/svg"><path d="M38.7 40H1.3C.6 40 0 39.4 0 38.7V1.3C0 .6.6 0 1.3 0h37.3c.8 0 1.4.6 1.4 1.3v37.3c0 .8-.6 1.4-1.3 1.4z"/><path d="M13.9 16h2.6v-2.4c0-1 0-2.7.8-3.7.9-1.1 2-1.8 4.1-1.8 3.3 0 4.7.4 4.7.4l-.7 3.6s-1.1-.3-2.1-.3-1.9.3-1.9 1.3V16h4.2l-.3 3.5h-3.9v12.3h-4.9V19.5h-2.6V16z"/></symbol><symbol viewBox="0 0 167 181" id="hat" xmlns="http://www.w3.org/2000/svg"><path fill-opacity=".1" d="M63.23 172.14a1353.7 1353.7 0 0 0-40.65-23.47C8.9 141.08 2.2 129.46 2.46 113.82c.27-15.65.27-31.29 0-46.94C2.2 51.24 8.9 39.62 22.58 32.03A1353.7 1353.7 0 0 0 63.23 8.56c13.42-8.05 26.83-8.05 40.24 0a1367.66 1367.66 0 0 0 40.65 23.47c13.69 7.59 20.39 19.21 20.12 34.85a1360.2 1360.2 0 0 0 0 46.94c.27 15.64-6.43 27.26-20.12 34.85a1367.66 1367.66 0 0 0-40.65 23.47c-13.41 8.05-26.82 8.05-40.24 0z"/><path d="M63.23 172.14a1353.7 1353.7 0 0 0-40.65-23.47C8.9 141.08 2.2 129.46 2.46 113.82c.27-15.65.27-31.29 0-46.94C2.2 51.24 8.9 39.62 22.58 32.03A1353.7 1353.7 0 0 0 63.23 8.56c13.42-8.05 26.83-8.05 40.24 0a1367.66 1367.66 0 0 0 40.65 23.47c13.69 7.59 20.39 19.21 20.12 34.85a1360.2 1360.2 0 0 0 0 46.94c.27 15.64-6.43 27.26-20.12 34.85a1367.66 1367.66 0 0 0-40.65 23.47c-13.41 8.05-26.82 8.05-40.24 0z"/><path d="M115.54 73.74a6.32 6.32 0 0 0-4.91-6.18l-27.5-6.34a6 6 0 0 0-2.82 0l-27.47 6.34a6.32 6.32 0 0 0-4.91 6.18 6.32 6.32 0 0 0 4.91 6.18l5.65 1.3v17.87c0 5.61 6.42 10.57 23.24 10.57 16.83 0 23.25-4.96 23.25-10.57V81.22l5.64-1.3a6.31 6.31 0 0 0 4.92-6.18zm-14.79 25.35c0 2.34-6.34 6.34-19.02 6.34-12.67 0-19.01-4-19.01-6.34V82.2l17.62 4.06a6.61 6.61 0 0 0 2.82-.01l17.59-4.05zM82.21 82.14a2.54 2.54 0 0 1-.95 0L53.79 75.8a2.12 2.12 0 0 1 0-4.12l27.47-6.34a2.53 2.53 0 0 1 .95 0l27.47 6.34a2.11 2.11 0 0 1 0 4.12zm26.99 2.16v19.02a2.12 2.12 0 0 0 4.23 0V84.3a2.11 2.11 0 0 0-4.23 0zm2.11 23.24c-2.33 0-4.22 6.12-4.22 8.45a4.22 4.22 0 1 0 8.45 0c0-2.33-1.89-8.45-4.23-8.45z"/></symbol><symbol viewBox="0 0 172 186" id="heart" xmlns="http://www.w3.org/2000/svg"><defs><clipPath id="ia"><path d="M476 1594v-186h172v186zm106.03-10.93a1364.9 1364.9 0 0 1 40.87-23.6c13.76-7.63 20.5-19.31 20.24-35.04-.28-15.73-.28-31.46 0-47.19.27-15.74-6.48-27.42-20.24-35.05a1364.61 1364.61 0 0 1-40.87-23.59c-13.49-8.11-26.97-8.11-40.46 0a1367.12 1367.12 0 0 1-40.87 23.59c-13.76 7.63-20.5 19.31-20.24 35.05.28 15.73.28 31.46 0 47.19-.27 15.73 6.48 27.41 20.24 35.04 13.76 7.63 27.38 15.5 40.87 23.6 13.49 8.1 26.97 8.1 40.46 0z"/></clipPath></defs><path fill-opacity=".1" d="M65.57 175.07a1367.41 1367.41 0 0 0-40.87-23.6c-13.76-7.63-20.5-19.31-20.24-35.04.28-15.73.28-31.46 0-47.19C4.2 53.5 10.94 41.82 24.7 34.19A1367.12 1367.12 0 0 0 65.57 10.6c13.49-8.11 26.97-8.11 40.46 0 13.49 8.1 27.11 15.96 40.87 23.59 13.76 7.63 20.5 19.31 20.24 35.05-.28 15.73-.28 31.46 0 47.19.27 15.73-6.48 27.41-20.24 35.04a1364.9 1364.9 0 0 0-40.87 23.6c-13.49 8.1-26.97 8.1-40.46 0z"/><path d="M541.57 1583.07a1367.41 1367.41 0 0 0-40.87-23.6c-13.76-7.63-20.5-19.31-20.24-35.04.28-15.73.28-31.46 0-47.19-.27-15.74 6.48-27.42 20.24-35.05a1367.12 1367.12 0 0 0 40.87-23.59c13.49-8.11 26.97-8.11 40.46 0 13.49 8.1 27.11 15.96 40.87 23.59 13.76 7.63 20.5 19.31 20.24 35.05-.28 15.73-.28 31.46 0 47.19.27 15.73-6.48 27.41-20.24 35.04a1364.9 1364.9 0 0 0-40.87 23.6c-13.49 8.1-26.97 8.1-40.46 0z" clip-path="url(#ia)" transform="translate(-476 -1408)"/><path d="M116.83 70.56a21.2 21.2 0 0 0-29.02-.63 21.19 21.19 0 0 0-29 .63 20.68 20.68 0 0 0 0 29.47l24.3 24.04a6.7 6.7 0 0 0 9.4 0l24.32-24.04a20.68 20.68 0 0 0 0-29.47zm-3.14 26.37l-24.3 24.04c-.87.85-2.28.85-3.14 0l-24.3-24.04a16.34 16.34 0 0 1 0-23.27 16.7 16.7 0 0 1 22.88-.48l2.98 2.68 2.99-2.68a16.7 16.7 0 0 1 22.89.48 16.34 16.34 0 0 1 0 23.27zM72.97 75.48a9.34 9.34 0 0 0-9.34 9.33 1.1 1.1 0 1 0 2.2 0c0-3.94 3.2-7.14 7.14-7.14a1.1 1.1 0 1 0 0-2.19z"/></symbol><symbol viewBox="0 0 40 40" id="instagram" xmlns="http://www.w3.org/2000/svg"><path d="M1.3 40h37.3c.7 0 1.3-.6 1.3-1.3V1.3C40 .6 39.4 0 38.7 0H1.3C.6 0 0 .6 0 1.3v37.3c0 .8.6 1.4 1.3 1.4z"/><path d="M12.5 9.9h15c1.4 0 2.6 1.2 2.6 2.6v15c0 1.4-1.2 2.6-2.6 2.6h-15c-1.4 0-2.6-1.2-2.6-2.6v-15c0-1.4 1.2-2.6 2.6-2.6zm12.1 2.3c-.5 0-.9.4-.9.9v2.2c0 .5.4.9.9.9h2.3c.5 0 .9-.4.9-.9v-2.2c0-.5-.4-.9-.9-.9h-2.3zm3.2 6.2H26c.2.5.3 1.1.3 1.7 0 3.4-2.8 6.1-6.3 6.1s-6.3-2.7-6.3-6.1c0-.6.1-1.2.3-1.7h-1.9V27c0 .4.4.8.8.8h14c.4 0 .8-.4.8-.8v-8.6zM20 16c-2.2 0-4 1.8-4 3.9 0 2.2 1.8 3.9 4 3.9s4.1-1.8 4.1-3.9c0-2.1-1.8-3.9-4.1-3.9z"/></symbol><symbol viewBox="0 0 15 15" id="login" xmlns="http://www.w3.org/2000/svg"><path d="M10 0v2.4h2.6v10.2H2.4v-2.4H0V15h15V0z"/><path d="M3.4 10.1h6.7V3.4L8 5.6 2.4 0 0 2.4 5.6 8z"/></symbol><symbol viewBox="0 0 17 14" id="menu" xmlns="http://www.w3.org/2000/svg"><path d="M0 10h17V8H0v2zm0 4h17v-2H0v2zm0-8h17V4H0v2zm0-6v2h17V0H0z"/></symbol><symbol viewBox="0 0 13.6 25" id="phone" xmlns="http://www.w3.org/2000/svg"><path d="M11.7 0H1.8C.8 0 0 .8 0 1.8v21.4c0 1 .8 1.8 1.8 1.8h9.9c1 0 1.8-.8 1.8-1.8V1.8c.1-1-.7-1.8-1.8-1.8zM5.6 1.9h2.3c.2 0 .3.1.3.3 0 .2-.1.3-.3.3H5.6c-.2 0-.3-.1-.3-.3 0-.2.1-.3.3-.3zm1.2 22c-.5 0-.9-.4-.9-.9s.4-1 .9-1 .9.4.9.9-.4 1-.9 1zm5.2-3.1H1.6V4.2H12v16.6z"/></symbol><symbol viewBox="0 0 167 181" id="portfolio" xmlns="http://www.w3.org/2000/svg"><path d="M63.23 172.14a1342.6 1342.6 0 0 0-40.65-23.47c-13.68-7.59-20.39-19.2-20.12-34.85.28-15.65.28-31.3 0-46.94-.27-15.64 6.44-27.26 20.12-34.85A1344.73 1344.73 0 0 0 63.23 8.56c13.42-8.05 26.83-8.05 40.24 0a1369.8 1369.8 0 0 0 40.65 23.47c13.69 7.59 20.39 19.2 20.12 34.85-.27 15.65-.27 31.3 0 46.94.27 15.64-6.43 27.26-20.12 34.85a1367.6 1367.6 0 0 0-40.65 23.47c-13.41 8.05-26.82 8.05-40.24 0z"/><path d="M63.23 172.14a1342.6 1342.6 0 0 0-40.65-23.47c-13.68-7.59-20.39-19.2-20.12-34.85.28-15.65.28-31.3 0-46.94-.27-15.64 6.44-27.26 20.12-34.85A1344.73 1344.73 0 0 0 63.23 8.56c13.42-8.05 26.83-8.05 40.24 0a1369.8 1369.8 0 0 0 40.65 23.47c13.69 7.59 20.39 19.2 20.12 34.85-.27 15.65-.27 31.3 0 46.94.27 15.64-6.43 27.26-20.12 34.85a1367.6 1367.6 0 0 0-40.65 23.47c-13.41 8.05-26.82 8.05-40.24 0z"/><path d="M102.08 35H65.63A6.63 6.63 0 0 0 59 41.63v39.76a6.63 6.63 0 0 0 6.63 6.63h36.45a6.63 6.63 0 0 0 6.63-6.63V41.63a6.63 6.63 0 0 0-6.63-6.63zm3.31 46.4a3.31 3.31 0 0 1-3.31 3.3H65.63a3.32 3.32 0 0 1-3.32-3.3V41.62a3.32 3.32 0 0 1 3.32-3.32h36.45a3.31 3.31 0 0 1 3.31 3.32zm-4.97-39.77H67.28c-.91 0-1.65.74-1.65 1.65v29.83c0 .92.74 1.66 1.65 1.66h33.14c.92 0 1.66-.74 1.66-1.66V43.28c0-.91-.74-1.65-1.66-1.65zm0 1.65v22.98l-5.38-5.85a1.67 1.67 0 0 0-2.49 0l-4.31 4.9-13.08-14.84a1.67 1.67 0 0 0-2.49 0l-5.39 6.21v-13.4zM67.28 59.2l6.63-7.62 13.37 15.15.96 1.09 4.58 5.3H67.28zm27.74 13.92l-5.68-6.55 4.46-5.05 6.62 7.26v4.34zm-4.54-16.57a4.97 4.97 0 1 0 0-9.93 4.97 4.97 0 0 0 0 9.93zm0-8.29a3.32 3.32 0 0 1 0 6.63 3.32 3.32 0 0 1 0-6.63z"/></symbol><symbol viewBox="0 0 18.8 19" id="search" xmlns="http://www.w3.org/2000/svg"><path d="M18.8 16.8l-4.3-4.3c.9-1.3 1.4-2.8 1.4-4.5C15.9 3.6 12.3.1 8 .1S0 3.6 0 7.9s3.6 7.9 7.9 7.9c1.6 0 3-.5 4.3-1.2l4.4 4.4 2.2-2.2zM7.9 12.7c-1.3 0-2.5-.5-3.4-1.4-.9-.9-1.4-2.1-1.4-3.4s.5-2.5 1.4-3.4c.9-.9 2.1-1.4 3.4-1.4s2.5.5 3.4 1.4c.9.9 1.4 2.1 1.4 3.4s-.5 2.5-1.4 3.4c-.9.9-2.1 1.4-3.4 1.4z"/></symbol><symbol viewBox="0 0 167 181" id="services" xmlns="http://www.w3.org/2000/svg"><path fill-opacity=".1" d="M63.23 172.14a1353.64 1353.64 0 0 0-40.65-23.47C8.9 141.08 2.2 129.47 2.46 113.82c.27-15.65.27-31.3 0-46.94C2.2 51.24 8.9 39.62 22.58 32.03A1355.8 1355.8 0 0 0 63.23 8.56c13.42-8.05 26.83-8.05 40.24 0a1355.8 1355.8 0 0 0 40.65 23.47c13.69 7.59 20.4 19.2 20.12 34.85-.27 15.65-.27 31.3 0 46.94.27 15.64-6.43 27.26-20.12 34.85a1353.64 1353.64 0 0 0-40.65 23.47c-13.41 8.05-26.82 8.05-40.24 0z"/><path d="M63.23 172.14a1353.64 1353.64 0 0 0-40.65-23.47C8.9 141.08 2.2 129.47 2.46 113.82c.27-15.65.27-31.3 0-46.94C2.2 51.24 8.9 39.62 22.58 32.03A1355.8 1355.8 0 0 0 63.23 8.56c13.42-8.05 26.83-8.05 40.24 0a1355.8 1355.8 0 0 0 40.65 23.47c13.69 7.59 20.4 19.2 20.12 34.85-.27 15.65-.27 31.3 0 46.94.27 15.64-6.43 27.26-20.12 34.85a1353.64 1353.64 0 0 0-40.65 23.47c-13.41 8.05-26.82 8.05-40.24 0z"/><path d="M83.51 44.53c-11.37 0-20.97 6.12-20.97 13.35a.95.95 0 1 0 1.9 0c0-6.1 8.91-11.44 19.07-11.44a.95.95 0 1 0 0-1.9zm0-9.53C66.66 35 53 45.25 53 57.88c0 7.87 5.3 14.81 13.36 18.93l-.01.14c0 3.42-2.55 7.1-3.68 9.04a1.73 1.73 0 0 0 1.59 2.4c.18 0 .5-.04.49-.02 5.96-.97 11.57-6.45 12.88-8.04 1.9.28 3.87.44 5.88.44 16.85 0 30.52-10.25 30.52-22.89C114.03 45.25 100.36 35 83.5 35zm0 41.96c-1.75 0-3.54-.14-5.33-.4a3.81 3.81 0 0 0-3.5 1.35c-.82 1-3.14 3.21-5.88 4.85a14.92 14.92 0 0 0 1.38-5.95c0-1.43-.8-2.74-2.08-3.4-7.07-3.6-11.29-9.4-11.29-15.53 0-10.51 11.98-19.07 26.7-19.07 14.73 0 26.7 8.56 26.7 19.07 0 10.52-11.97 19.07-26.7 19.07z"/></symbol><symbol viewBox="0 0 167 181" id="team" xmlns="http://www.w3.org/2000/svg"><path fill-opacity=".1" d="M63.23 172.14a1351.48 1351.48 0 0 0-40.65-23.47c-13.68-7.6-20.39-19.2-20.12-34.85.27-15.65.27-31.3 0-46.94C2.2 51.24 8.9 39.62 22.58 32.03A1353.64 1353.64 0 0 0 63.23 8.56c13.42-8.05 26.83-8.05 40.24 0a1353.64 1353.64 0 0 0 40.65 23.47c13.69 7.59 20.4 19.2 20.12 34.85a1354.9 1354.9 0 0 0 0 46.94c.27 15.64-6.43 27.26-20.12 34.85a1351.48 1351.48 0 0 0-40.65 23.47c-13.41 8.05-26.82 8.05-40.24 0z"/><path d="M63.23 172.14a1351.48 1351.48 0 0 0-40.65-23.47c-13.68-7.6-20.39-19.2-20.12-34.85.27-15.65.27-31.3 0-46.94C2.2 51.24 8.9 39.62 22.58 32.03A1353.64 1353.64 0 0 0 63.23 8.56c13.42-8.05 26.83-8.05 40.24 0a1353.64 1353.64 0 0 0 40.65 23.47c13.69 7.59 20.4 19.2 20.12 34.85a1354.9 1354.9 0 0 0 0 46.94c.27 15.64-6.43 27.26-20.12 34.85a1351.48 1351.48 0 0 0-40.65 23.47c-13.41 8.05-26.82 8.05-40.24 0z"/><path d="M111.44 90.59a51.1 51.1 0 0 0-16.22-6.47c3.48-4.42 5.71-10.35 6.66-14.3 1.32-5.48.81-16.19-4.45-22.86A15.3 15.3 0 0 0 85 41a15.3 15.3 0 0 0-12.43 5.96c-5.26 6.67-5.77 17.38-4.45 22.86.95 3.95 3.18 9.88 6.66 14.3a51.1 51.1 0 0 0-16.22 6.47A3.5 3.5 0 0 0 60.5 97h49a3.5 3.5 0 0 0 1.94-6.41zm-18.97-8.64l-.58.72c-4.17 4.8-9.61 4.8-13.78 0l-.58-.72a29.91 29.91 0 0 1-6.25-22.14C72.24 52.32 76.53 44.5 85 44.5s12.76 7.82 13.72 15.31a29.92 29.92 0 0 1-6.25 22.14zM60.5 93.5c.24-.16 6.17-4.05 15.02-5.96l4.35-.94A9.23 9.23 0 0 0 85 88.25c1.87 0 3.58-.63 5.13-1.65l4.34.94a47.71 47.71 0 0 1 15.03 5.96z"/></symbol></svg>