<?xml version="1.0" encoding="utf-8"?>
<!-- Generator: Adobe Illustrator 18.0.0, SVG Export Plug-In . SVG Version: 6.00 Build 0)  -->
<!DOCTYPE svg PUBLIC "-//W3C//DTD SVG 1.1//EN" "http://www.w3.org/Graphics/SVG/1.1/DTD/svg11.dtd">
<svg version="1.1" id="Layer_1" xmlns="http://www.w3.org/2000/svg" xmlns:xlink="http://www.w3.org/1999/xlink" x="0px" y="0px"
	 width="16px" height="16px" viewBox="0 0 16 16" enable-background="new 0 0 16 16" xml:space="preserve">
<g>
	<g>
		<path fill="#FFC501" d="M8,16c-2.1,0-4.1-0.8-5.7-2.3S0,10.1,0,8s0.8-4.1,2.3-5.7S5.9,0,8,0s4.1,0.8,5.7,2.3S16,5.9,16,8
			s-0.8,4.1-2.3,5.7S10.1,16,8,16z M8,2.3C4.9,2.3,2.3,4.9,2.3,8s2.6,5.7,5.7,5.7s5.7-2.6,5.7-5.7S11.1,2.3,8,2.3z"/>
	</g>
	<g>
		<polygon fill="#FFC501" points="12.1,9.3 6.9,9.3 6.9,3.4 9.1,3.4 9.1,7 12.1,7 		"/>
	</g>
</g>
</svg>
